<?xml version="1.0"?>
<svg xmlns="http://www.w3.org/2000/svg" height="512px" viewBox="0 0 512 512" width="512px"><path d="m452 0h-392c-33.085938 0-60 26.914062-60 60v392c0 33.085938 26.914062 60 60 60h392c33.085938 0 60-26.914062 60-60v-392c0-33.085938-26.914062-60-60-60zm20 452c0 11.027344-8.972656 20-20 20h-392c-11.027344 0-20-8.972656-20-20v-392c0-11.027344 8.972656-20 20-20h392c11.027344 0 20 8.972656 20 20zm-333-49c0 16.570312-13.429688 30-30 30s-30-13.429688-30-30 13.429688-30 30-30 30 13.429688 30 30zm92.734375-122.734375c40.796875 40.796875 63.265625 95.039063 63.265625 152.734375h-40c0-97.046875-78.953125-176-176-176v-40c57.695312 0 111.9375 22.46875 152.734375 63.265625zm173.4375 14.933594c18.464844 43.65625 27.828125 90.019531 27.828125 137.800781h-40c0-173.140625-140.859375-314-314-314v-40c47.78125 0 94.144531 9.363281 137.800781 27.828125 42.152344 17.828125 80.011719 43.351563 112.515625 75.855469s58.027344 70.363281 75.855469 112.515625zm0 0" fill="#FFFFFF"/></svg>
