<?xml version="1.0" encoding="iso-8859-1"?>
<!-- Generator: Adobe Illustrator 16.0.0, SVG Export Plug-In . SVG Version: 6.00 Build 0)  -->
<!DOCTYPE svg PUBLIC "-//W3C//DTD SVG 1.1//EN" "http://www.w3.org/Graphics/SVG/1.1/DTD/svg11.dtd">
<svg version="1.1" id="Capa_1" xmlns="http://www.w3.org/2000/svg" xmlns:xlink="http://www.w3.org/1999/xlink" x="0px" y="0px"
	 width="362.044px" height="362.044px" viewBox="0 0 362.044 362.044" style="enable-background:new 0 0 362.044 362.044;"
	 xml:space="preserve">
<g>
	<path d="M193.626,3.672c-2.448-4.896-10.404-4.896-12.852,0c-20.808,37.944-39.78,76.5-50.796,118.116
		c-1.224,6.12,5.508,12.24,11.016,8.568c12.24-8.568,22.644-18.972,31.824-31.212c-2.448,85.68-14.076,174.42,6.12,258.876
		c1.224,6.12,11.627,4.896,11.015-1.225c-11.015-87.516-2.447-174.42-1.224-261.936c10.404,9.18,20.808,18.36,30.6,27.54
		c4.284,4.284,13.465,1.836,12.853-5.508C227.285,76.5,213.821,38.556,193.626,3.672z M186.894,76.5
		c-3.672-5.508-14.076-4.284-14.076,4.284c0,0.612,0,1.224,0,1.224c-7.344,7.344-14.076,14.688-22.032,22.032
		c9.792-28.152,22.032-54.468,36.107-80.784c12.24,23.868,21.42,48.348,26.316,74.664c-6.732-6.12-14.076-12.24-20.809-18.972
		C191.178,76.5,188.729,75.888,186.894,76.5z"/>
</g>
<g>
</g>
<g>
</g>
<g>
</g>
<g>
</g>
<g>
</g>
<g>
</g>
<g>
</g>
<g>
</g>
<g>
</g>
<g>
</g>
<g>
</g>
<g>
</g>
<g>
</g>
<g>
</g>
<g>
</g>
</svg>
