<?xml version="1.0" encoding="iso-8859-1"?>
<!-- Generator: Adobe Illustrator 16.0.0, SVG Export Plug-In . SVG Version: 6.00 Build 0)  -->
<!DOCTYPE svg PUBLIC "-//W3C//DTD SVG 1.1//EN" "http://www.w3.org/Graphics/SVG/1.1/DTD/svg11.dtd">
<svg version="1.1" id="Capa_1" xmlns="http://www.w3.org/2000/svg" xmlns:xlink="http://www.w3.org/1999/xlink" x="0px" y="0px"
	 width="346.393px" height="346.393px" viewBox="0 0 346.393 346.393" style="enable-background:new 0 0 346.393 346.393;"
	 xml:space="preserve">
<g>
	<path d="M204.651,58.521c-4.284-21.42-15.3-39.78-28.764-56.305c-3.061-3.672-9.181-2.447-11.629,1.225
		c-11.016,19.584-20.196,41.004-22.644,63.647c-0.612,6.732,9.792,7.345,11.016,1.225c4.284-16.524,10.404-32.437,18.36-47.736
		c3.06,4.284,6.121,9.18,8.569,14.076c-4.284-4.284-14.077-2.448-14.077,5.508c-0.612,99.756-23.256,202.571-5.508,301.104
		c1.224,7.956,14.688,6.12,14.076-1.836c-7.956-100.368,7.345-198.899,7.957-299.268c0-0.612,0-1.224,0-1.224
		c3.672,7.344,6.119,14.688,7.956,23.256C191.188,71.985,206.487,68.313,204.651,58.521z"/>
</g>
<g>
</g>
<g>
</g>
<g>
</g>
<g>
</g>
<g>
</g>
<g>
</g>
<g>
</g>
<g>
</g>
<g>
</g>
<g>
</g>
<g>
</g>
<g>
</g>
<g>
</g>
<g>
</g>
<g>
</g>
</svg>
