<?xml version="1.0" encoding="iso-8859-1"?>
<!-- Generator: Adobe Illustrator 18.0.0, SVG Export Plug-In . SVG Version: 6.00 Build 0)  -->
<!DOCTYPE svg PUBLIC "-//W3C//DTD SVG 1.1//EN" "http://www.w3.org/Graphics/SVG/1.1/DTD/svg11.dtd">
<svg xmlns="http://www.w3.org/2000/svg" xmlns:xlink="http://www.w3.org/1999/xlink" version="1.1" id="Capa_1" x="0px" y="0px" viewBox="0 0 276.715 276.715" style="enable-background:new 0 0 276.715 276.715;" xml:space="preserve" width="512px" height="512px">
<g>
	<path d="M138.357,0C62.066,0,0,62.066,0,138.357s62.066,138.357,138.357,138.357s138.357-62.066,138.357-138.357   S214.648,0,138.357,0z M138.357,258.715C71.992,258.715,18,204.723,18,138.357S71.992,18,138.357,18   s120.357,53.992,120.357,120.357S204.723,258.715,138.357,258.715z" fill="#FFFFFF"/>
	<path d="M194.798,160.903c-4.188-2.677-9.753-1.454-12.432,2.732c-8.694,13.593-23.503,21.708-39.614,21.708   c-25.908,0-46.985-21.078-46.985-46.986s21.077-46.986,46.985-46.986c15.633,0,30.2,7.747,38.968,20.723   c2.782,4.117,8.375,5.201,12.496,2.418c4.118-2.782,5.201-8.377,2.418-12.496c-12.118-17.937-32.262-28.645-53.882-28.645   c-35.833,0-64.985,29.152-64.985,64.986s29.152,64.986,64.985,64.986c22.281,0,42.759-11.218,54.778-30.009   C200.208,169.147,198.985,163.582,194.798,160.903z" fill="#FFFFFF"/>
</g>
<g>
</g>
<g>
</g>
<g>
</g>
<g>
</g>
<g>
</g>
<g>
</g>
<g>
</g>
<g>
</g>
<g>
</g>
<g>
</g>
<g>
</g>
<g>
</g>
<g>
</g>
<g>
</g>
<g>
</g>
</svg>
