<?xml version="1.0" encoding="UTF-8" standalone="no"?>
<!-- Generator: Adobe Illustrator 19.0.0, SVG Export Plug-In . SVG Version: 6.00 Build 0)  -->

<svg
   xmlns:dc="http://purl.org/dc/elements/1.1/"
   xmlns:cc="http://creativecommons.org/ns#"
   xmlns:rdf="http://www.w3.org/1999/02/22-rdf-syntax-ns#"
   xmlns:svg="http://www.w3.org/2000/svg"
   xmlns="http://www.w3.org/2000/svg"
   xmlns:sodipodi="http://sodipodi.sourceforge.net/DTD/sodipodi-0.dtd"
   xmlns:inkscape="http://www.inkscape.org/namespaces/inkscape"
   version="1.1"
   id="Layer_1"
   x="0px"
   y="0px"
   viewBox="0 0 385.072 385.072"
   style="enable-background:new 0 0 385.072 385.072;"
   xml:space="preserve"
   sodipodi:docname="gauge-nocolor.svg"
   inkscape:version="0.92.2 5c3e80d, 2017-08-06"><metadata
     id="metadata47"><rdf:RDF><cc:Work
         rdf:about=""><dc:format>image/svg+xml</dc:format><dc:type
           rdf:resource="http://purl.org/dc/dcmitype/StillImage" /><dc:title></dc:title></cc:Work></rdf:RDF></metadata><defs
     id="defs45" /><sodipodi:namedview
     pagecolor="#ffffff"
     bordercolor="#666666"
     borderopacity="1"
     objecttolerance="10"
     gridtolerance="10"
     guidetolerance="10"
     inkscape:pageopacity="0"
     inkscape:pageshadow="2"
     inkscape:window-width="1280"
     inkscape:window-height="691"
     id="namedview43"
     showgrid="false"
     inkscape:zoom="1.733465"
     inkscape:cx="193.31515"
     inkscape:cy="184.61785"
     inkscape:window-x="0"
     inkscape:window-y="1"
     inkscape:window-maximized="1"
     inkscape:current-layer="Layer_1" /><path
     style="opacity:1;fill:#ffffff;fill-opacity:1"
     d="m 224.98291,245.46721 -4.03815,-11.53759 40.95843,-6.92255 -27.11333,35.76652 z"
     id="rect5351"
     inkscape:connector-curvature="0"
     sodipodi:nodetypes="ccccc" /><g
     id="g10"><g
       id="g8"><g
         id="g6"><path
           d="M288.824,99.842c-0.001-0.001-0.003-0.001-0.004-0.002c-59.388-34.366-133.172-34.368-192.561-0.003     c-0.003,0.002-0.007,0.003-0.01,0.005C38.527,133.231,0,195.607,0,266.603c0,4.143,3.358,7.5,7.5,7.5h141.278     c3.576,20.924,21.831,36.904,43.758,36.904c22.02,0,39.793-15.259,43.698-36.904h141.338c4.142,0,7.5-3.357,7.5-7.5     C385.073,195.579,346.522,133.217,288.824,99.842z M148.776,259.103H15.158c2.515-59.71,34.459-112.003,82.184-142.38     l66.824,115.741C155.961,239.294,150.533,248.928,148.776,259.103z M192.537,296.007c-16.214,0-29.405-13.19-29.405-29.404     c0-16.191,13.198-29.407,29.407-29.407c15.852,0,29.188,12.725,29.396,29.015C221.868,281.12,210.877,296.007,192.537,296.007z      M207.924,224.951c-9.574-3.541-20.619-3.758-30.775,0l-66.823-115.74c51.35-26.866,113.072-26.866,164.421,0L207.924,224.951z      M233.704,249.64c-1.333-3.229-3.06-6.304-5.168-9.162l20.29-5.295L233.704,249.64z M245.514,259.102l34.574-33.056     c5.568-5.325,0.386-14.622-7.077-12.678l-48.365,12.622l63.086-109.268c47.719,30.373,79.669,82.663,82.184,142.38H245.514z"
           id="path2" /></g></g></g><g
     id="g12" /><g
     id="g14" /><g
     id="g16" /><g
     id="g18" /><g
     id="g20" /><g
     id="g22" /><g
     id="g24" /><g
     id="g26" /><g
     id="g28" /><g
     id="g30" /><g
     id="g32" /><g
     id="g34" /><g
     id="g36" /><g
     id="g38" /><g
     id="g40" /></svg>