<?xml version="1.0" encoding="UTF-8" standalone="no"?>
<svg
   xmlns:dc="http://purl.org/dc/elements/1.1/"
   xmlns:cc="http://creativecommons.org/ns#"
   xmlns:rdf="http://www.w3.org/1999/02/22-rdf-syntax-ns#"
   xmlns:svg="http://www.w3.org/2000/svg"
   xmlns="http://www.w3.org/2000/svg"
   xmlns:sodipodi="http://sodipodi.sourceforge.net/DTD/sodipodi-0.dtd"
   xmlns:inkscape="http://www.inkscape.org/namespaces/inkscape"
   version="1.1"
   x="0px"
   y="0px"
   viewBox="0 0 66 82.5"
   enable-background="new 0 0 66 66"
   xml:space="preserve"
   id="svg32"
   sodipodi:docname="neuralNetwork.svg"
   inkscape:version="0.92.2 5c3e80d, 2017-08-06"><metadata
     id="metadata38"><rdf:RDF><cc:Work
         rdf:about=""><dc:format>image/svg+xml</dc:format><dc:type
           rdf:resource="http://purl.org/dc/dcmitype/StillImage" /></cc:Work></rdf:RDF></metadata><defs
     id="defs36" /><sodipodi:namedview
     pagecolor="#ffffff"
     bordercolor="#666666"
     borderopacity="1"
     objecttolerance="10"
     gridtolerance="10"
     guidetolerance="10"
     inkscape:pageopacity="0"
     inkscape:pageshadow="2"
     inkscape:window-width="748"
     inkscape:window-height="480"
     id="namedview34"
     showgrid="false"
     inkscape:zoom="2.8606061"
     inkscape:cx="33"
     inkscape:cy="31.784016"
     inkscape:window-x="0"
     inkscape:window-y="0"
     inkscape:window-maximized="0"
     inkscape:current-layer="svg32" /><g
     id="g26"><g
       id="g4"><path
         d="M64,25.6c0.6,0,1-0.4,1-1c0-0.6-0.4-1-1-1h-5.5v-6.4H64c0.6,0,1-0.4,1-1c0-0.6-0.4-1-1-1h-5.5v-1.4c0-3.4-2.8-6.2-6.2-6.2    h-1.4V2c0-0.6-0.4-1-1-1c-0.6,0-1,0.4-1,1v5.5h-6.4V2c0-0.6-0.4-1-1-1c-0.6,0-1,0.4-1,1v5.5H34V2c0-0.6-0.4-1-1-1    c-0.6,0-1,0.4-1,1v5.5h-6.4V2c0-0.6-0.4-1-1-1c-0.6,0-1,0.4-1,1v5.5h-6.4V2c0-0.6-0.4-1-1-1c-0.6,0-1,0.4-1,1v5.5h-1.4    c-3.4,0-6.2,2.8-6.2,6.2v1.4H2c-0.6,0-1,0.4-1,1c0,0.6,0.4,1,1,1h5.5v6.4H2c-0.6,0-1,0.4-1,1c0,0.6,0.4,1,1,1h5.5V32H2    c-0.6,0-1,0.4-1,1c0,0.6,0.4,1,1,1h5.5v6.4H2c-0.6,0-1,0.4-1,1c0,0.6,0.4,1,1,1h5.5v6.4H2c-0.6,0-1,0.4-1,1c0,0.6,0.4,1,1,1h5.5    v1.4c0,3.4,2.8,6.2,6.2,6.2h1.4V64c0,0.6,0.4,1,1,1c0.6,0,1-0.4,1-1v-5.5h6.4V64c0,0.6,0.4,1,1,1c0.6,0,1-0.4,1-1v-5.5H32V64    c0,0.6,0.4,1,1,1c0.6,0,1-0.4,1-1v-5.5h6.4V64c0,0.6,0.4,1,1,1c0.6,0,1-0.4,1-1v-5.5h6.4V64c0,0.6,0.4,1,1,1c0.6,0,1-0.4,1-1v-5.5    h1.4c3.4,0,6.2-2.8,6.2-6.2v-1.4H64c0.6,0,1-0.4,1-1c0-0.6-0.4-1-1-1h-5.5v-6.4H64c0.6,0,1-0.4,1-1c0-0.6-0.4-1-1-1h-5.5V34H64    c0.6,0,1-0.4,1-1c0-0.6-0.4-1-1-1h-5.5v-6.4H64z M56.5,52.3c0,2.3-1.9,4.2-4.2,4.2H13.7c-2.3,0-4.2-1.9-4.2-4.2V13.7    c0-2.3,1.9-4.2,4.2-4.2h38.6c2.3,0,4.2,1.9,4.2,4.2V52.3z"
         id="path2" /></g><g
       id="g8"><path
         d="M29.5,33.7c-2.2,0.6-3.4,1.5-4.1,2.1c-3-1.2-4.7,0.5-4.7,0.5c-0.4,0.4-0.4,1,0,1.4c0.4,0.4,1,0.4,1.4,0c0,0,1-0.9,3.2,0.2    c0.5,0.2,1.1,0,1.3-0.4c0,0,0.7-1.2,3.4-1.9c0.5-0.1,0.9-0.7,0.7-1.2C30.6,33.9,30,33.6,29.5,33.7z"
         id="path6" /></g><g
       id="g12"><path
         d="M23.2,30.1c0,0,1.2,0.6,0.9,1.9c-0.3,1.3,1.6,1.8,1.9,0.5c0.6-2.3-1-3.8-2-4.2c-0.5-0.2-1.1,0-1.3,0.5    C22.4,29.3,22.7,29.9,23.2,30.1z"
         id="path10" /></g><g
       id="g16"><path
         d="M49.7,22c-0.7-2.7-3.3-4.6-5.6-4.7c-1.9-4.7-8.5-5.2-11.1-1c-2.7-4.2-9.3-3.7-11.1,1c-2.3,0.1-4.8,1.9-5.6,4.7    c-4.5,1.5-5.6,7.4-2.2,10.6c-1.5,2.6-1,6,1.3,8c-1.4,4.1,1.9,8.6,6.4,8.3c2,4.6,8.4,5.3,11.1,0.9c2.6,4.1,9.1,3.9,11.2-0.9    c4.5,0.3,7.8-4.2,6.4-8.3c2.3-2,2.9-5.4,1.3-8C55.4,29.4,54.2,23.5,49.7,22z M32,46.3c0,2.4-1.9,4.3-4.3,4.3c-5.8,0-5.6-8.6,0-8.6    c0.6,0,1-0.4,1-1c0-0.6-0.4-1-1-1c-3.6,0-6.6,3-6.3,6.8c-2.8,0-4.8-2.7-4.1-5.3c1.2,0.3,2.5,0.2,3.7-0.1c0.5-0.1,0.9-0.7,0.8-1.2    c-0.1-0.5-0.7-0.9-1.2-0.8c-6.3,1.4-7.7-6.6-0.7-8.2c0.5-0.1,0.9-0.7,0.8-1.2c-0.1-0.5-0.6-0.9-1.2-0.8c-2.1,0.5-3.3,1.1-4,1.7    c-2-1.9-1.6-5.4,0.8-6.8C16.2,25,16.4,26,17,27c0.6,1.2,2.4,0.2,1.8-0.9c-1.6-3.1,0.1-6.1,2.7-6.7c-0.2,3.7,2.8,6.6,6.3,6.6    c0.6,0,1-0.4,1-1c0-0.6-0.4-1-1-1c-2.9,0-5.2-2.9-3.9-6c1.8-4.1,8.2-3,8.2,1.7V46.3z M50.6,31c-0.7-0.5-1.9-1.2-4-1.7    c-0.5-0.1-1.1,0.2-1.2,0.8c-0.1,0.5,0.2,1.1,0.8,1.2c1.2,0.3,2.8,0.8,3.6,1.7c1.6,1.9,1.3,4.9-0.9,6.4c-0.1,0.1-1.2,0.6-3.4,0.1    c-0.5-0.1-1.1,0.2-1.2,0.8c-0.1,0.5,0.2,1.1,0.8,1.2c1.5,0.3,2.8,0.3,3.7,0.1c0.7,2.6-1.3,5.3-4.1,5.3c0.3-3.7-2.7-6.8-6.3-6.8    c-0.6,0-1,0.4-1,1c0,0.6,0.4,1,1,1c2.4,0,4.3,1.9,4.3,4.3c0,5.7-8.6,5.7-8.6,0V19.7c0-5.7,8.6-5.6,8.6,0c0,2.4-1.9,4.3-4.3,4.3    c-0.6,0-1,0.4-1,1c0,0.6,0.4,1,1,1c3.5,0,6.5-2.9,6.3-6.6c2.7,0.6,4.3,3.7,2.7,6.7c-0.3,0.5-0.1,1.1,0.4,1.4    c0.1,0.1,0.3,0.1,0.5,0.1c0.4,0,0.7-0.2,0.9-0.5c0.5-1,0.7-2,0.8-2.8C52.2,25.6,52.6,29.1,50.6,31z"
         id="path14" /></g><g
       id="g20"><path
         d="M40.6,35.9c-0.6-0.7-1.9-1.6-4.1-2.1c-0.5-0.1-1.1,0.2-1.2,0.7c-0.1,0.5,0.2,1.1,0.7,1.2c2.6,0.7,3.4,1.9,3.4,1.9    c0.2,0.5,0.9,0.7,1.3,0.4c2.1-1.1,3.1-0.2,3.2-0.2c0.4,0.4,1,0.4,1.4,0c0.4-0.4,0.4-1,0-1.4C45.2,36.3,43.6,34.7,40.6,35.9z"
         id="path18" /></g><g
       id="g24"><path
         d="M41,33.3c0.7,0,1.1-0.6,1-1.2c-0.3-1.3,0.7-1.9,0.9-2c0.5-0.2,0.7-0.8,0.5-1.3c-0.2-0.5-0.8-0.7-1.3-0.5    c-0.9,0.4-2.5,1.9-2,4.2C40.1,33,40.5,33.3,41,33.3z"
         id="path22" /></g></g></svg>