<?xml version="1.0" encoding="UTF-8" standalone="no"?>
<svg
   xmlns:dc="http://purl.org/dc/elements/1.1/"
   xmlns:cc="http://creativecommons.org/ns#"
   xmlns:rdf="http://www.w3.org/1999/02/22-rdf-syntax-ns#"
   xmlns:svg="http://www.w3.org/2000/svg"
   xmlns="http://www.w3.org/2000/svg"
   xmlns:sodipodi="http://sodipodi.sourceforge.net/DTD/sodipodi-0.dtd"
   xmlns:inkscape="http://www.inkscape.org/namespaces/inkscape"
   version="1.1"
   x="0px"
   y="0px"
   viewBox="0 0 100 118.875"
   enable-background="new 0 0 100 95.1"
   xml:space="preserve"
   id="svg8"
   sodipodi:docname="paraglider2.svg"
   inkscape:version="0.92.2 5c3e80d, 2017-08-06"><metadata
     id="metadata14"><rdf:RDF><cc:Work
         rdf:about=""><dc:format>image/svg+xml</dc:format><dc:type
           rdf:resource="http://purl.org/dc/dcmitype/StillImage" /></cc:Work></rdf:RDF></metadata><defs
     id="defs12" /><sodipodi:namedview
     pagecolor="#ffffff"
     bordercolor="#666666"
     borderopacity="1"
     objecttolerance="10"
     gridtolerance="10"
     guidetolerance="10"
     inkscape:pageopacity="0"
     inkscape:pageshadow="2"
     inkscape:window-width="748"
     inkscape:window-height="480"
     id="namedview10"
     showgrid="false"
     inkscape:zoom="1.9852787"
     inkscape:cx="-15.481992"
     inkscape:cy="59.4375"
     inkscape:window-x="0"
     inkscape:window-y="0"
     inkscape:window-maximized="0"
     inkscape:current-layer="svg8" /><path
     fill="#000000"
     d="M52.4,60.2c0.2,2-1.2,3.8-3.2,4c-2,0.2-3.8-1.2-4-3.3c-0.2-2,1.2-3.8,3.2-4C50.4,56.7,52.2,58.2,52.4,60.2z   M92.4,31.9l-27,27.6L64.8,59l-0.7-0.3l17.8-37c-6.7-5.8-15-9-23.8-10.8c3.2-0.3,6.4-0.4,9.5-0.6c4.1-0.2,8-0.4,11.6-0.8l4.3-0.4  c9.1,3.4,14.8,8.3,14.8,13.6C98.4,26.1,96.2,29.2,92.4,31.9z M88.2,28.8L72,50.6L90.1,32C89.5,30.9,88.9,29.8,88.2,28.8z M83.1,22.8  L68.9,52.2l18.4-24.7C85.9,25.8,84.5,24.2,83.1,22.8z M64.1,59.7c-0.8-0.5-1.9-0.3-2.4,0.5L59.4,64l-6.8-0.3  c-0.7,0.9-1.7,1.6-2.9,1.8c-0.1,0-0.2,0-0.3,0c-1.3,0.1-2.6-0.3-3.6-1.1c-0.4-0.3-0.7-0.6-1-1l-5.7,0.2l-2.3-3.8  c-0.5-0.8-1.6-1-2.4-0.5c-0.8,0.5-1.1,1.6-0.6,2.4c0,0,2.5,4.3,3,4.9c0.5,0.7,1.5,0.7,1.5,0.7l5.8,0.4L43.6,77c0,0.2,0,0.3,0.1,0.4  c0,0-0.1,0.7,0.4,1.1l0,0l4.9,3.1l0.3,7.5c-0.1,1,0.6,1.9,1.6,2.1c1.1,0.3,2.2-0.4,2.5-1.5c0-0.2,0.1-0.3,0.1-0.5l-0.3-9l0.3,0.2  l0.3,7.5c-0.1,1,0.6,1.9,1.6,2.1c1.1,0.3,2.2-0.4,2.5-1.5c0-0.2,0.1-0.3,0.1-0.5l-0.3-9c0,0,0-0.8-1.3-1.9c-1.1-1-2.9-2.2-3.7-2.8  l0.4-6.5l7.2-0.4c0,0,1,0,1.5-0.6c0.5-0.7,3.1-4.9,3.1-4.9C65.2,61.3,64.9,60.2,64.1,59.7z M33,58.6L8.9,32.2  c-4.1-2.8-6.5-6-6.5-9.5c0-10.4,21.5-18.9,48.1-18.9c10.7,0,20.6,1.4,28.6,3.7C61.1,9.4,34.7,7.5,18.5,22l15.7,35.8l-0.7,0.3  L33,58.6z M12.5,28.9c-0.6,1-1.3,2-1.8,3l16,17.5L12.5,28.9z M29.7,51.2L17.3,23.1c-1.4,1.4-2.7,2.9-3.9,4.5L29.7,51.2z"
     id="path2" /></svg>