<svg height="512pt" viewBox="-9 0 512 512" width="512pt" xmlns="http://www.w3.org/2000/svg"><path d="m431.578125 193.253906c27.890625-68.980468-36.675781-139.980468-108.085937-118.683594-19.570313-44.636718-64.28125-74.570312-114.039063-74.570312-63.433594 0-115.9375 47.71875-123.507813 109.136719h-16.058593c-38.535157 0-69.886719 31.351562-69.886719 69.878906 0 38.535156 31.351562 69.886719 69.886719 69.886719h137.273437c-13.304687 32.671875 10.898438 68.832031 46.425782 68.832031 190.023437 0 178.089843.03125 179.914062-.0625 33.53125-1.3125 59.773438-28.609375 59.773438-62.183594 0-34.140625-27.628907-61.945312-61.695313-62.234375zm-361.691406 24.628906c-21.433594 0-38.867188-17.433593-38.867188-38.867187 0-21.425781 17.433594-38.859375 38.867188-38.859375h30.628906c8.25 0 15.507813-6.539062 15.507813-15.738281.019531-51.5 41.929687-93.398438 93.429687-93.398438 41.734375 0 78.730469 28.042969 89.980469 68.179688 2.652344 9.523437 13.488281 14.171875 22.25 9.492187 44.460937-23.828125 97.183594 17.351563 83.144531 67.105469-47.453125-51.695313-133.28125-26.664063-145.886719 41.785156 0 0 4.796875.300781-189.054687.300781zm361.152343 68.832032h-177.453124c-10.503907 0-19.058594-8.550782-19.058594-19.054688 0-9.371094 6.796875-17.175781 15.71875-18.757812 2.210937-.402344 1.621094-.300782 22.808594-.300782 8.367187 0 15.511718-6.675781 15.511718-15.65625 0-29.507812 24.03125-53.714843 53.746094-53.714843 24.195312 0 45.367188 16.3125 51.75 39.210937 1.539062 5.472656 5.886719 9.453125 10.785156 10.753906 10.265625 2.890626 12.164063-4.933593 26.179688-4.933593 17.21875 0 31.226562 14.011719 31.226562 31.226562 0 17.324219-13.929687 31.226563-31.214844 31.226563zm0 0" fill="#C35F5F"/><path d="m133.042969 375.292969c-8.566407 0-15.511719 6.945312-15.511719 15.507812v105.6875c0 8.566407 6.945312 15.511719 15.511719 15.511719 8.566406 0 15.507812-6.945312 15.507812-15.511719v-105.6875c0-8.5625-6.941406-15.507812-15.507812-15.507812zm0 0" fill="#C35F5F"/><path d="m133.042969 272.976562c-8.566407 0-15.511719 6.945313-15.511719 15.511719v38.707031c0 8.566407 6.945312 15.507813 15.511719 15.507813 8.566406 0 15.507812-6.941406 15.507812-15.507813v-38.707031c0-8.566406-6.941406-15.511719-15.507812-15.511719zm0 0" fill="#C35F5F"/><path d="m208.773438 454.417969c-8.566407 0-15.511719 6.941406-15.511719 15.507812v26.5625c0 8.566407 6.945312 15.511719 15.511719 15.511719 8.5625 0 15.507812-6.945312 15.507812-15.511719v-26.5625c0-8.566406-6.941406-15.507812-15.507812-15.507812zm0 0" fill="#C35F5F"/><path d="m208.773438 329.078125c-8.566407 0-15.511719 6.945313-15.511719 15.511719v79.335937c0 8.566407 6.945312 15.511719 15.511719 15.511719 8.5625 0 15.507812-6.945312 15.507812-15.511719v-79.335937c0-8.566406-6.941406-15.511719-15.507812-15.511719zm0 0" fill="#C35F5F"/><path d="m284.503906 406.15625c-8.566406 0-15.511718 6.945312-15.511718 15.511719v74.820312c0 8.566407 6.945312 15.511719 15.511718 15.511719s15.507813-6.945312 15.507813-15.511719v-74.820312c0-8.566407-6.941407-15.511719-15.507813-15.511719zm0 0" fill="#C35F5F"/><path d="m284.503906 339.046875c-8.566406 0-15.511718 6.941406-15.511718 15.507813v23.667968c0 8.566406 6.945312 15.511719 15.511718 15.511719s15.507813-6.945313 15.507813-15.511719v-23.667968c0-8.566407-6.941407-15.507813-15.507813-15.507813zm0 0" fill="#C35F5F"/><path d="m360.230469 449.902344c-8.5625 0-15.507813 6.945312-15.507813 15.507812v31.078125c0 8.566407 6.945313 15.511719 15.507813 15.511719 8.566406 0 15.511719-6.945312 15.511719-15.511719v-31.078125c0-8.5625-6.945313-15.507812-15.511719-15.507812zm0 0" fill="#C35F5F"/><path d="m360.230469 339.046875c-8.5625 0-15.507813 6.941406-15.507813 15.507813v67.324218c0 8.566406 6.945313 15.511719 15.507813 15.511719 8.566406 0 15.511719-6.945313 15.511719-15.511719v-67.324218c0-8.566407-6.945313-15.507813-15.511719-15.507813zm0 0" fill="#C35F5F"/></svg>