<?xml version="1.0"?>
<svg xmlns="http://www.w3.org/2000/svg" height="512px" viewBox="0 0 496 496" width="512px"><path d="m320 342.742188v-54.742188h16v-16h-96v16h16v54.742188c-5.441406 2.378906-10.390625 5.480468-15.070312 8.914062l-48.929688-89.695312v-37.960938h16v-16h-16v-24c0-4.414062-3.574219-8-8-8h-8v-24c0-4.414062-3.574219-8-8-8h-48c-4.425781 0-8 3.585938-8 8v24h-8c-4.425781 0-8 3.585938-8 8v24h-16v16h16v37.960938l-91.121094 167.046874c-3.191406 5.855469-4.878906 12.480469-4.878906 19.152344v7.839844c0 22.054688 17.945312 40 40 40h208c5.671875 0 11.238281-1.265625 16.367188-3.566406 7.472656 2.308594 15.410156 3.566406 23.632812 3.566406 44.113281 0 80-35.886719 80-80 0-31.863281-19.070312-60.617188-48-73.257812zm-16-54.742188v16h-32v-16zm-37.328125 67.726562c3.191406-1.132812 5.328125-4.152343 5.328125-7.542968v-28.183594h32v28.183594c0 3.390625 2.136719 6.410156 5.328125 7.542968 20.351563 7.210938 35.207031 24.121094 40.464844 44.351563-6.089844.210937-11.800781 2.617187-16.136719 6.953125l-6.625 6.625c-1.496094 1.488281-3.550781 2.34375-5.65625 2.34375h-2.75c-2.105469 0-4.167969-.855469-5.65625-2.34375l-6.625-6.625c-4.527344-4.535156-10.558594-7.03125-16.96875-7.03125h-2.75c-6.410156 0-12.441406 2.496094-16.96875 7.03125l-6.625 6.625c-1.496094 1.488281-3.550781 2.34375-5.65625 2.34375h-2.75c-2.105469 0-4.167969-.855469-5.65625-2.34375l-6.625-6.625c-4.328125-4.335938-10.039062-6.734375-16.136719-6.953125 5.257813-20.230469 20.113281-37.148437 40.464844-44.351563zm-138.671875-195.726562h32v16h-32zm-16 32h64v16h-64zm-.976562 75.832031c.640624-1.175781.976562-2.496093.976562-3.832031v-40h64v40c0 1.335938.335938 2.65625.976562 3.832031l28.519532 52.28125c-5.976563.277344-11.574219 2.65625-15.839844 6.917969l-6.625 6.625c-1.496094 1.488281-3.550781 2.34375-5.65625 2.34375h-2.75c-2.105469 0-4.167969-.855469-5.65625-2.34375l-6.625-6.625c-4.527344-4.535156-10.558594-7.03125-16.96875-7.03125h-2.75c-6.410156 0-12.441406 2.496094-16.96875 7.03125l-6.625 6.625c-1.496094 1.488281-3.550781 2.34375-5.65625 2.34375h-2.75c-2.105469 0-4.167969-.855469-5.65625-2.34375l-6.625-6.625c-4.253906-4.261719-9.863281-6.640625-15.839844-6.917969zm-71.023438 212.167969c-13.230469 0-24-10.769531-24-24v-7.839844c0-4 1.015625-7.984375 2.929688-11.496094l54.910156-100.664062h7.535156c2.105469 0 4.167969.855469 5.65625 2.34375l6.625 6.625c4.527344 4.535156 10.558594 7.03125 16.96875 7.03125h2.75c6.410156 0 12.441406-2.496094 16.96875-7.03125l6.625-6.625c1.496094-1.488281 3.550781-2.34375 5.65625-2.34375h2.75c2.105469 0 4.167969.855469 5.65625 2.34375l6.625 6.625c4.527344 4.535156 10.558594 7.03125 16.96875 7.03125h2.75c6.410156 0 12.441406-2.496094 16.96875-7.03125l6.625-6.625c1.496094-1.488281 3.550781-2.34375 5.65625-2.34375h7.535156l14.480469 26.542969c-12.953125 14.386719-20.640625 33.28125-20.640625 53.457031 0 26.183594 12.703125 49.398438 32.207031 64zm248 0c-35.289062 0-64-28.710938-64-64h1.375c2.105469 0 4.167969.855469 5.65625 2.34375l6.625 6.625c4.527344 4.535156 10.558594 7.03125 16.96875 7.03125h2.75c6.410156 0 12.441406-2.496094 16.96875-7.03125l6.625-6.625c1.496094-1.488281 3.550781-2.34375 5.65625-2.34375h2.75c2.105469 0 4.167969.855469 5.65625 2.34375l6.625 6.625c4.527344 4.535156 10.558594 7.03125 16.96875 7.03125h2.75c6.410156 0 12.441406-2.496094 16.96875-7.03125l6.625-6.625c1.496094-1.488281 3.550781-2.34375 5.65625-2.34375h1.375c0 35.289062-28.710938 64-64 64zm0 0" fill="#ffffff"/><path d="m56 416c-13.230469 0-24 10.769531-24 24s10.769531 24 24 24 24-10.769531 24-24-10.769531-24-24-24zm0 32c-4.414062 0-8-3.59375-8-8s3.585938-8 8-8 8 3.59375 8 8-3.585938 8-8 8zm0 0" fill="#ffffff"/><path d="m120 400c-13.230469 0-24 10.769531-24 24s10.769531 24 24 24 24-10.769531 24-24-10.769531-24-24-24zm0 32c-4.414062 0-8-3.59375-8-8s3.585938-8 8-8 8 3.59375 8 8-3.585938 8-8 8zm0 0" fill="#ffffff"/><path d="m176 368c-13.230469 0-24 10.769531-24 24s10.769531 24 24 24 24-10.769531 24-24-10.769531-24-24-24zm0 32c-4.414062 0-8-3.59375-8-8s3.585938-8 8-8 8 3.59375 8 8-3.585938 8-8 8zm0 0" fill="#ffffff"/><path d="m184 448h16v16h-16zm0 0" fill="#ffffff"/><path d="m168 432h16v16h-16zm0 0" fill="#ffffff"/><path d="m152 448h16v16h-16zm0 0" fill="#ffffff"/><path d="m88 376h16v16h-16zm0 0" fill="#ffffff"/><path d="m488 112h-112c-4.425781 0-8 3.585938-8 8v32c0 4.414062 3.574219 8 8 8h8v288c0 26.472656 21.527344 48 48 48s48-21.527344 48-48v-288h8c4.425781 0 8-3.585938 8-8v-32c0-4.414062-3.574219-8-8-8zm-56 368c-17.648438 0-32-14.351562-32-32v-176h64v176c0 17.648438-14.351562 32-32 32zm32-224h-64v-96h64zm16-112h-96v-16h96zm0 0" fill="#ffffff"/><path d="m416 440h16v16h-16zm0 0" fill="#ffffff"/><path d="m432 408h16v16h-16zm0 0" fill="#ffffff"/><path d="m416 376h16v16h-16zm0 0" fill="#ffffff"/><path d="m432 344h16v16h-16zm0 0" fill="#ffffff"/><path d="m416 312h16v16h-16zm0 0" fill="#ffffff"/><path d="m128 88c0-4.40625 3.585938-8 8-8h24v48h16v-48h80v176h16v-176h24c4.414062 0 8 3.59375 8 8v168h16v-168c0-13.230469-10.769531-24-24-24h-24v-8c0-4.40625 3.585938-8 8-8h96c4.414062 0 8 3.59375 8 8v40h16v-40c0-13.230469-10.769531-24-24-24h-96c-13.230469 0-24 10.769531-24 24v8h-80v-40c0-4.40625 3.585938-8 8-8h272c4.414062 0 8 3.59375 8 8v72h16v-72c0-13.230469-10.769531-24-24-24h-272c-13.230469 0-24 10.769531-24 24v40h-24c-13.230469 0-24 10.769531-24 24v40h16zm0 0" fill="#ffffff"/><path d="m48 120c0 13.230469 10.769531 24 24 24s24-10.769531 24-24-10.769531-24-24-24-24 10.769531-24 24zm32 0c0 4.40625-3.585938 8-8 8s-8-3.59375-8-8 3.585938-8 8-8 8 3.59375 8 8zm0 0" fill="#ffffff"/><path d="m40 80c22.054688 0 40-17.945312 40-40s-17.945312-40-40-40-40 17.945312-40 40 17.945312 40 40 40zm0-64c13.230469 0 24 10.769531 24 24s-10.769531 24-24 24-24-10.769531-24-24 10.769531-24 24-24zm0 0" fill="#ffffff"/><path d="m32 224c17.648438 0 32-14.351562 32-32s-14.351562-32-32-32-32 14.351562-32 32 14.351562 32 32 32zm0-48c8.824219 0 16 7.175781 16 16s-7.175781 16-16 16-16-7.175781-16-16 7.175781-16 16-16zm0 0" fill="#ffffff"/></svg>
