<?xml version="1.0"?>
<svg xmlns="http://www.w3.org/2000/svg" height="512px" version="1.1" viewBox="-9 0 137 137.13223" width="512px">
<g id="surface1">
<path d="M 51.78125 0.433594 L 7.257812 0.433594 C 3.285156 0.4375 0.0625 3.660156 0.0664062 7.636719 C 0.0664062 11.609375 3.289062 14.832031 7.257812 14.832031 L 10.097656 14.832031 L 10.097656 117.707031 C 10.097656 128.433594 18.796875 137.132812 29.523438 137.132812 C 40.25 137.132812 48.949219 128.433594 48.949219 117.707031 L 48.949219 14.820312 L 51.78125 14.820312 C 55.761719 14.820312 58.980469 11.59375 58.980469 7.621094 C 58.980469 3.648438 55.761719 0.421875 51.78125 0.421875 Z M 45.21875 117.707031 C 45.460938 126.375 38.632812 133.601562 29.964844 133.84375 C 21.292969 134.089844 14.070312 127.257812 13.828125 118.589844 C 13.816406 118.292969 13.816406 118 13.828125 117.703125 L 13.828125 68.917969 C 18.535156 66.4375 23.941406 65.601562 29.183594 66.539062 L 30.695312 66.828125 C 36.117188 67.859375 41.316406 68.84375 45.234375 67.460938 Z M 45.21875 63.320312 C 42.535156 65.273438 37.308594 64.289062 31.34375 63.160156 L 29.824219 62.875 C 24.410156 61.890625 18.824219 62.550781 13.789062 64.777344 L 13.789062 14.820312 L 45.21875 14.820312 Z M 51.78125 11.101562 L 7.257812 11.101562 C 5.34375 11.101562 3.792969 9.550781 3.792969 7.636719 C 3.792969 5.71875 5.34375 4.164062 7.257812 4.164062 L 51.78125 4.164062 C 53.703125 4.164062 55.253906 5.71875 55.253906 7.636719 C 55.253906 9.550781 53.703125 11.101562 51.78125 11.101562 Z M 51.78125 11.101562 " style=" fill-rule:nonzero;fill-opacity:1;" stroke="#FFFFFF" fill="#FFFFFF"/>
<path d="M 112.621094 0.015625 L 68.097656 0.015625 C 64.121094 0.015625 60.898438 3.238281 60.902344 7.21875 C 60.902344 11.191406 64.121094 14.410156 68.097656 14.410156 L 70.929688 14.410156 L 70.929688 117.269531 C 70.929688 127.996094 79.628906 136.699219 90.355469 136.699219 C 101.089844 136.699219 109.785156 127.996094 109.785156 117.269531 L 109.785156 14.398438 L 112.621094 14.398438 C 116.59375 14.394531 119.816406 11.171875 119.816406 7.199219 C 119.816406 3.222656 116.59375 0 112.621094 0 Z M 106.054688 117.28125 C 106.054688 125.953125 99.027344 132.976562 90.355469 132.976562 C 81.6875 132.976562 74.660156 125.953125 74.660156 117.28125 L 74.660156 68.492188 C 79.363281 65.996094 84.769531 65.148438 90.015625 66.082031 L 91.535156 66.371094 C 96.953125 67.402344 102.152344 68.382812 106.054688 67.003906 Z M 106.054688 62.898438 C 103.320312 64.851562 98.148438 63.871094 92.230469 62.75 L 90.703125 62.464844 C 85.285156 61.476562 79.695312 62.136719 74.660156 64.367188 L 74.660156 14.398438 L 106.054688 14.398438 Z M 112.621094 10.679688 L 68.097656 10.679688 C 66.183594 10.679688 64.628906 9.125 64.628906 7.210938 C 64.628906 5.292969 66.183594 3.738281 68.097656 3.738281 L 112.628906 3.738281 C 114.550781 3.738281 116.101562 5.292969 116.101562 7.210938 C 116.101562 9.125 114.550781 10.679688 112.628906 10.679688 Z M 112.621094 10.679688 " style=" fill-rule:nonzero;fill-opacity:1;" stroke="#FFFFFF" fill="#FFFFFF"/>
</g>
</svg>
