<svg height="512pt" viewBox="0 -8 512 511" width="512pt" xmlns="http://www.w3.org/2000/svg"><path d="m319.320312 311.894531c1.949219 0 3.894532-.742187 5.378907-2.226562 2.972656-2.972657 2.972656-7.785157 0-10.757813l-127.546875-127.542968c-2.96875-2.972657-7.785156-2.972657-10.753906 0-2.96875 2.96875-2.96875 7.785156 0 10.753906l127.546874 127.546875c1.484376 1.484375 3.429688 2.226562 5.375 2.226562zm0 0" fill="#FFFFFF"/><path d="m285.683594 345.53125c1.945312 0 3.890625-.742188 5.378906-2.226562 2.96875-2.96875 2.96875-7.785157 0-10.753907l-85.34375-85.34375c-2.96875-2.96875-7.785156-2.96875-10.753906 0-2.96875 2.972657-2.96875 7.789063 0 10.757813l85.339844 85.339844c1.484374 1.484374 3.433593 2.226562 5.378906 2.226562zm0 0" fill="#FFFFFF"/><path d="m176.71875 236.570312c1.949219 0 3.894531-.742187 5.378906-2.226562 2.96875-2.972656 2.96875-7.785156 0-10.753906l-18.582031-18.585938c-2.972656-2.96875-7.789063-2.96875-10.757813 0s-2.96875 7.785156 0 10.753906l18.585938 18.585938c1.484375 1.484375 3.429688 2.226562 5.375 2.226562zm0 0" fill="#FFFFFF"/><path d="m119.121094 238.640625c-2.96875 2.972656-2.96875 7.789063 0 10.757813l82.730468 82.730468c1.484376 1.484375 3.433594 2.226563 5.378907 2.226563 1.945312 0 3.894531-.742188 5.378906-2.226563 2.96875-2.96875 2.96875-7.785156 0-10.753906l-82.734375-82.734375c-2.96875-2.96875-7.785156-2.96875-10.753906 0zm0 0" fill="#FFFFFF"/><path d="m512 28.828125c0-17.742187-9.9375-24.140625-15.859375-26.371094-10.121094-3.816406-29.902344-3.914062-66.671875 17.304688-23.746094 13.710937-47.707031 32.679687-65.046875 51.398437l-98.703125-33.945312c-11.796875-4.054688-25.121094-.976563-33.941406 7.84375l-222.148438 222.148437c-6.207031 6.210938-9.628906 14.464844-9.628906 23.25 0 8.78125 3.421875 17.039063 9.628906 23.25l172.730469 172.726563c6.410156 6.410156 14.828125 9.617187 23.25 9.617187 8.417969 0 16.839844-3.207031 23.25-9.617187l163.632813-163.632813c2.96875-2.96875 2.96875-7.785156 0-10.753906-2.972657-2.96875-7.785157-2.972656-10.757813 0l-163.632813 163.632813c-6.886718 6.890624-18.097656 6.890624-24.988281 0l-172.726562-172.730469c-6.890625-6.890625-6.890625-18.097657 0-24.988281l222.144531-222.144532c4.742188-4.742187 11.902344-6.394531 18.242188-4.214844l128.527343 44.199219c5.183594 1.785157 9.179688 5.777344 10.960938 10.964844l2.222656 6.464844c-9.722656 5.5-19.066406 10.492187-27.410156 14.800781-1-1.304688-2.089844-2.5625-3.285157-3.757812-14.925781-14.925782-39.207031-14.921876-54.136718 0-14.925782 14.925781-14.925782 39.210937 0 54.136718 7.464844 7.460938 17.265625 11.195313 27.070312 11.195313 9.800782 0 19.605469-3.734375 27.066406-11.195313 9.933594-9.929687 13.246094-24.003906 9.960938-36.707031 7.871094-4.058594 16.632812-8.730469 25.765625-13.847656l36.945313 107.4375c2.179687 6.339843.527343 13.5-4.214844 18.238281l-37.203125 37.207031c-2.972657 2.96875-2.972657 7.785157 0 10.753907 2.96875 2.96875 7.785156 2.96875 10.753906 0l37.207031-37.207032c8.820313-8.820312 11.898438-22.144531 7.84375-33.941406l-37.902344-110.207031c2.515626-1.484375 5.039063-2.996094 7.5625-4.53125 56.183594-34.179688 83.492188-62.566407 83.492188-86.777344zm-150.902344 106.269531c-1.742187.863282-3.421875 1.6875-4.972656 2.441406l1.386719-5.394531c1.246093.828125 2.429687 1.785157 3.523437 2.882813.023438.023437.042969.046875.0625.070312zm-.0625 32.554688c-8.992187 8.996094-23.628906 8.996094-32.625 0-8.996094-8.992188-8.996094-23.628906 0-32.625 4-4 9.121094-6.210938 14.363282-6.652344l-5.417969 21.070312c-.726563 2.832032.230469 5.828126 2.46875 7.710938 1.398437 1.179688 3.136719 1.789062 4.898437 1.789062 1.054688 0 2.117188-.21875 3.117188-.667968.175781-.078125 7.878906-3.554688 19.792968-9.445313.730469 6.714844-1.460937 13.6875-6.597656 18.820313zm53.613282-65.835938c-3.316407-9.644531-10.753907-17.082031-20.398438-20.398437l-13.984375-4.808594c35.769531-36.195313 91.507813-67.082031 110.511719-59.921875 1.796875.679688 6.015625 2.269531 6.015625 12.140625 0 10.234375-9.882813 33.425781-76.074219 73.714844-1.605469.976562-3.214844 1.945312-4.820312 2.902343zm0 0" fill="#FFFFFF"/></svg>