<?xml version="1.0"?>
<svg xmlns="http://www.w3.org/2000/svg" height="512px" viewBox="0 0 512 512" width="512px"><path stroke="#404751" stroke-width="10" d="m256 200c-30.878906 0-56 25.121094-56 56s25.121094 56 56 56 56-25.121094 56-56-25.121094-56-56-56zm0 82c-14.335938 0-26-11.664062-26-26s11.664062-26 26-26 26 11.664062 26 26-11.664062 26-26 26zm0 0" fill="#b3bac3"/><path stroke="#404751" stroke-width="10" d="m512 241h-55.570312c-7.328126-98.894531-86.535157-178.101562-185.429688-185.433594v-55.566406h-30v55.566406c-98.894531 7.332032-178.101562 86.539063-185.429688 185.433594h-55.570312v30h55.570312c7.328126 98.894531 86.535157 178.101562 185.429688 185.433594v55.566406h30v-55.566406c98.894531-7.332032 178.101562-86.539063 185.429688-185.433594h55.570312zm-85.675781 0h-42.203125c-6.882813-59.164062-53.953125-106.238281-113.121094-113.121094v-42.203125c82.339844 7.191407 148.132812 72.984375 155.324219 155.324219zm-170.324219 114c-54.589844 0-99-44.410156-99-99s44.410156-99 99-99 99 44.410156 99 99-44.410156 99-99 99zm-15-269.324219v42.203125c-59.167969 6.882813-106.238281 53.957032-113.121094 113.121094h-42.203125c7.191407-82.339844 72.984375-148.132812 155.324219-155.324219zm-155.324219 185.324219h42.203125c6.882813 59.164062 53.953125 106.238281 113.121094 113.121094v42.203125c-82.339844-7.191407-148.132812-72.984375-155.324219-155.324219zm185.324219 155.324219v-42.203125c59.167969-6.882813 106.238281-53.957032 113.121094-113.121094h42.203125c-7.191407 82.339844-72.984375 148.132812-155.324219 155.324219zm0 0" fill="#b3bac3"/></svg>
