<?xml version="1.0" encoding="iso-8859-1"?>
<!-- Generator: Adobe Illustrator 19.0.0, SVG Export Plug-In . SVG Version: 6.00 Build 0)  -->
<svg version="1.1" id="Capa_1" xmlns="http://www.w3.org/2000/svg" xmlns:xlink="http://www.w3.org/1999/xlink" x="0px" y="0px"
	 viewBox="0 0 407.2 407.2" style="enable-background:new 0 0 407.2 407.2;" xml:space="preserve">
<g>
	<g>
		<path d="M267.6,10.2c-5.6,0-10.4,4.8-10.4,10.4V49c0,5.6,4.8,10.4,10.4,10.4c5.6,0,10.4-4.8,10.4-10.4V20.6
			C278,15,273.2,10.2,267.6,10.2z"/>
	</g>
</g>
<g>
	<g>
		<path d="M366,51c-4-4-10.4-4-14.4,0l-20,20c-4,4-4,10.4,0,14.4s10.4,4,14.4,0l20-20C370,61.4,370,55,366,51z"/>
	</g>
</g>
<g>
	<g>
		<path d="M203.2,71l-20-20c-4-4-10.4-4-14.4,0s-4,10.4,0,14.4l20,20c4,4,10.4,4,14.4,0S207.2,75,203.2,71z"/>
	</g>
</g>
<g>
	<g>
		<path d="M275.2,322.6c-8-8-18.8-12.8-30.8-12.8c-0.4,0-0.8,0-0.8,0H131.2c-5.6,0-10.4,4.4-10.4,10.4c0,5.6,4.4,10.4,10.4,10.4
			h112.4c0.4,0,0.4,0,0.8,0c6.4,0,12,2.4,16,6.8c4,4,6.8,10,6.8,16c0,6.4-2.4,12-6.8,16c-4,4-10,6.8-16,6.8c-6.4,0-12-2.4-16-6.8
			c-4-4-6.8-10-6.8-16c0-5.6-4.8-10.4-10.4-10.4c-5.6,0-10.4,4.8-10.4,10.4c0,12,4.8,22.8,12.8,30.8s18.8,12.8,30.8,12.8
			s22.8-4.8,30.8-12.8s12.8-18.8,12.8-30.8S283.2,330.6,275.2,322.6z"/>
	</g>
</g>
<g>
	<g>
		<path d="M365.6,233.4L346,213.8c-4-4-10.4-4-14.4,0c-1.6,1.6-2.4,3.2-2.8,5.2c-0.4-9.2-2.8-17.6-6-25.6c4-5.2,7.6-11.2,10-17.2
			c3.6-8.4,5.2-17.6,5.2-26.8c0-19.6-8-37.2-20.8-49.6c-12.8-12.4-30.4-20.4-49.6-20.4c-13.2,0-25.6,3.6-36.4,10
			c-7.6,4.8-14.4,10.8-20,18c-16-10.8-35.2-17.2-55.6-17.2c-24.4,0-46.8,8.8-64,23.6C76.4,127,65.2,144.6,60,165.4
			c-15.6,2-29.6,9.2-40,19.6C7.6,197.4,0,214.6,0,233.4s7.6,36,20,48.4c12.4,12.4,29.6,20,48.4,20h182c21.6,0,40.8-8.8,55.2-22.8
			c14-14,22.8-33.6,22.8-55.2v-0.4c0.4,1.6,1.2,3.2,2.8,4.4l20,20c4,4,10.4,4,14.4,0S369.6,237.4,365.6,233.4z M291.6,264.6
			c-10.4,10.4-24.8,16.8-40.4,16.8H68.8c-13.2,0-25.2-5.2-34-14s-14-20.8-14-34s5.2-25.2,14-34s20.8-14,34-14c1.6,0,3.6-0.4,4.8-1.2
			c2.4-1.6,4-4,4.4-6.8c2.8-18.8,12.4-35.6,26-47.2c13.6-11.6,31.6-18.8,50.8-18.8c16.4,0,31.6,5.2,44.4,14
			c9.6,6.8,18,15.6,23.6,26.4c-1.6,0.8-3.2,1.2-4.8,2c-10,4.4-18.8,11.2-26.4,19.2c-3.6,4.4-3.2,10.8,0.8,14.4
			c4.4,3.6,10.8,3.2,14.4-0.8c5.6-6,12-10.8,19.2-14.4c7.2-3.2,15.2-5.2,23.6-5.2c16,0,30,6.4,40.4,16.8
			c10.4,10.4,16.8,24.8,16.8,40.4C308,240.2,301.6,254.2,291.6,264.6z M313.6,168.6c-0.8,2-1.6,4-2.8,5.6c-1.6-2-3.2-3.6-4.8-5.2
			c-14-14-33.6-22.8-55.2-22.8c-2,0-4.4,0-6.4,0.4C240,137,234,128.2,226.8,121c4-5.6,9.2-10,14.8-13.6c7.6-4.8,16.4-7.2,25.6-7.2
			c13.6,0,26.4,5.6,35.2,14.4c9.2,9.2,14.4,21.6,14.4,35.2C317.2,156.6,316,163,313.6,168.6z"/>
	</g>
</g>
<g>
	<g>
		<path d="M396.8,139.4h-28.4c-5.6,0-10.4,4.8-10.4,10.4c0,5.6,4.8,10.4,10.4,10.4h28.4c5.6,0,10.4-4.8,10.4-10.4
			C406.8,144.2,402.4,139.4,396.8,139.4z"/>
	</g>
</g>
<g>
</g>
<g>
</g>
<g>
</g>
<g>
</g>
<g>
</g>
<g>
</g>
<g>
</g>
<g>
</g>
<g>
</g>
<g>
</g>
<g>
</g>
<g>
</g>
<g>
</g>
<g>
</g>
<g>
</g>
</svg>
