<?xml version="1.0" encoding="iso-8859-1"?>
<!-- Generator: Adobe Illustrator 21.0.0, SVG Export Plug-In . SVG Version: 6.00 Build 0)  -->
<svg xmlns="http://www.w3.org/2000/svg" xmlns:xlink="http://www.w3.org/1999/xlink" version="1.1" id="Capa_1" x="0px" y="0px" viewBox="0 0 512 512" style="enable-background:new 0 0 512 512;" xml:space="preserve" width="512px" height="512px">
<g>
	<g>
		<g>
			<path d="M469.333,0H42.667C19.114,0.028,0.028,19.114,0,42.667v426.667C0.028,492.886,19.114,511.972,42.667,512h426.667     c23.552-0.028,42.638-19.114,42.667-42.667V42.667C511.972,19.114,492.886,0.028,469.333,0z M494.933,469.333     c0,14.138-11.461,25.6-25.6,25.6H42.667c-14.138,0-25.6-11.461-25.6-25.6v-384h477.867V469.333z M494.933,68.267H17.067v-25.6     c0-14.138,11.462-25.6,25.6-25.6h426.667c14.138,0,25.6,11.462,25.6,25.6V68.267z" fill="#FFFFFF"/>
			<path d="M59.733,34.133H51.2c-4.713,0-8.533,3.82-8.533,8.533S46.487,51.2,51.2,51.2h8.533c4.713,0,8.533-3.82,8.533-8.533     S64.446,34.133,59.733,34.133z" fill="#FFFFFF"/>
			<path d="M97.109,34.816c-2.06-0.939-4.426-0.939-6.485,0c-1.034,0.433-1.986,1.039-2.816,1.792c-3.3,3.365-3.3,8.752,0,12.117     c0.83,0.753,1.782,1.359,2.816,1.792c2.066,0.91,4.419,0.91,6.485,0c1.034-0.433,1.986-1.039,2.816-1.792     c3.3-3.365,3.3-8.752,0-12.117C99.095,35.855,98.143,35.249,97.109,34.816z" fill="#FFFFFF"/>
			<path d="M131.272,34.736c-3.202-1.329-6.89-0.59-9.331,1.872c-0.753,0.83-1.359,1.782-1.792,2.816     c-0.911,2.066-0.911,4.419,0,6.485c0.433,1.034,1.039,1.986,1.792,2.816c3.365,3.3,8.752,3.3,12.117,0     c0.753-0.83,1.359-1.782,1.792-2.816c0.478-1.013,0.712-2.123,0.683-3.243C136.554,39.2,134.474,36.065,131.272,34.736z" fill="#FFFFFF"/>
			<path d="M460.8,34.133H170.667c-4.713,0-8.533,3.82-8.533,8.533s3.82,8.533,8.533,8.533H460.8c4.713,0,8.533-3.82,8.533-8.533     S465.513,34.133,460.8,34.133z" fill="#FFFFFF"/>
			<path d="M131.012,406.357c0.388,0.357,0.811,0.675,1.263,0.947c32.121,34.15,76.927,53.51,123.81,53.495     s91.676-19.402,123.776-53.572c0.424-0.247,0.824-0.533,1.195-0.853c0.28-0.393,0.526-0.81,0.734-1.246     c59.882-64.957,59.882-164.999,0-229.956l-0.034-0.017c-0.208-0.436-0.454-0.853-0.734-1.246     c-0.389-0.362-0.815-0.682-1.271-0.956c-32.107-34.122-76.88-53.47-123.733-53.47s-91.626,19.348-123.733,53.47     c-0.456,0.273-0.882,0.594-1.271,0.956c-0.28,0.393-0.526,0.81-0.734,1.246c-59.882,64.957-59.882,164.999,0,229.956     C130.487,405.547,130.732,405.964,131.012,406.357z M302.549,436.454c13.117-15.841,22.99-34.108,29.056-53.76v-0.026     c10.72,5.022,20.834,11.245,30.148,18.551C344.941,417.296,324.697,429.344,302.549,436.454z M373.53,388.821     c-11.356-9.11-23.817-16.751-37.086-22.741c5.488-22.067,8.485-44.679,8.934-67.413h63.787     C407.391,331.79,394.882,363.436,373.53,388.821z M409.165,281.6h-63.787c-0.45-22.734-3.447-45.347-8.934-67.413     c13.268-5.985,25.729-13.62,37.086-22.724C394.879,216.843,407.387,248.482,409.165,281.6z M361.754,179.021     c-9.314,7.306-19.428,13.53-30.148,18.551c-6.063-19.661-15.936-37.937-29.056-53.786     C324.697,150.897,344.941,162.945,361.754,179.021z M264.533,137.728c20.915,5.478,39.415,30.626,51.072,66.227     c-16.468,5.678-33.669,8.951-51.072,9.719V137.728z M264.533,230.75c18.987-0.711,37.773-4.159,55.774-10.24     c4.841,20.019,7.527,40.499,8.013,61.09h-63.787V230.75z M264.533,298.667h63.787c-0.487,20.585-3.173,41.059-8.013,61.073     c-18.002-6.075-36.787-9.518-55.774-10.223V298.667z M264.533,366.592c17.403,0.771,34.604,4.047,51.072,9.728     c-11.657,35.601-30.157,60.749-51.072,66.227V366.592z M150.246,401.195c9.317-7.288,19.431-13.495,30.148-18.5v-0.026     c6.066,19.652,15.939,37.919,29.056,53.76C187.303,429.319,167.059,417.271,150.246,401.195z M247.467,442.539     c-20.915-5.478-39.415-30.626-51.072-66.227c16.468-5.678,33.669-8.951,51.072-9.719V442.539z M247.467,349.517     c-18.987,0.711-37.772,4.159-55.774,10.24c-4.841-20.02-7.527-40.499-8.013-61.09h63.787V349.517z M247.467,281.6H183.68     c0.487-20.585,3.173-41.059,8.013-61.073c18.002,6.075,36.787,9.518,55.774,10.223V281.6z M247.467,137.719v75.955     c-17.403-0.771-34.604-4.047-51.072-9.728C208.051,168.346,226.551,143.198,247.467,137.719z M209.451,143.761     c-13.123,15.856-22.996,34.141-29.056,53.811v-0.026c-10.72-5.022-20.834-11.245-30.148-18.552     C167.059,162.919,187.303,150.871,209.451,143.761z M138.47,191.445c11.356,9.11,23.817,16.751,37.086,22.741     c-5.488,22.067-8.485,44.679-8.934,67.413h-63.787C104.609,248.476,117.118,216.83,138.47,191.445z M166.622,298.667     c0.45,22.734,3.447,45.347,8.934,67.413c-13.268,5.985-25.729,13.62-37.086,22.724c-21.349-25.38-33.857-57.02-35.635-90.138     H166.622z" fill="#FFFFFF"/>
		</g>
	</g>
</g>
<g>
</g>
<g>
</g>
<g>
</g>
<g>
</g>
<g>
</g>
<g>
</g>
<g>
</g>
<g>
</g>
<g>
</g>
<g>
</g>
<g>
</g>
<g>
</g>
<g>
</g>
<g>
</g>
<g>
</g>
</svg>
