<svg height="512pt" viewBox="0 -36 512 512" width="512pt" xmlns="http://www.w3.org/2000/svg"><path d="m67.695312 247.582031c8.554688 0 15.492188-6.933593 15.492188-15.488281s-6.9375-15.488281-15.492188-15.488281h-46.160156c-8.554687 0-15.488281 6.933593-15.488281 15.488281s6.933594 15.488281 15.488281 15.488281zm0 0" fill="#C35F5F"/><path d="m96.5 290.175781c0-8.550781-6.933594-15.488281-15.488281-15.488281h-65.523438c-8.554687 0-15.488281 6.9375-15.488281 15.488281 0 8.554688 6.933594 15.492188 15.488281 15.492188h65.523438c8.554687 0 15.488281-6.933594 15.488281-15.492188zm0 0" fill="#C35F5F"/><path d="m475 46.65625h-10.757812c-8.554688 0-15.488282 6.933594-15.488282 15.488281 0 8.554688 6.933594 15.488281 15.488282 15.488281h10.757812c3.320312 0 6.023438 2.703126 6.023438 6.023438s-2.703126 6.023438-6.023438 6.023438h-69.558594c-8.554687 0-15.488281 6.9375-15.488281 15.488281 0 8.554687 6.933594 15.492187 15.488281 15.492187h69.558594c20.402344 0 37-16.601562 37-37.003906s-16.597656-37-37-37zm0 0" fill="#C35F5F"/><path d="m44.617188 74.003906h69.554687c20.40625 0 37.003906-16.601562 37.003906-37.003906s-16.597656-37-37.003906-37h-10.753906c-8.554688 0-15.488281 6.933594-15.488281 15.488281 0 8.554688 6.933593 15.488281 15.488281 15.488281h10.753906c3.324219 0 6.023437 2.703126 6.023437 6.023438 0 3.324219-2.699218 6.023438-6.023437 6.023438h-69.554687c-8.554688 0-15.488282 6.9375-15.488282 15.492187 0 8.550781 6.933594 15.488281 15.488282 15.488281zm0 0" fill="#C35F5F"/><path d="m479.570312 408.0625h-171.910156c0-19.644531 3.945313-37.75 13.085938-55.335938 36.382812 22.871094 85.082031 18.460938 116.726562-13.164062 29.425782-29.425781 42.335938-122.246094 45.886719-162.335938.828125-9.605468-7.195313-17.609374-16.777344-16.78125-27.265625 2.414063-67.144531 8.433594-97.964843 16.355469 9.964843-42.746093 16.910156-95.25 18.9375-119.761719.847656-9.578124-7.171876-17.605468-16.78125-16.78125-168.574219 15.070313-231.054688 47.449219-250.5 113.773438h-96.765626c-8.5625 0-15.488281 6.941406-15.488281 15.492188 0 8.558593 6.925781 15.488281 15.488281 15.488281h91.820313c-.980469 30.203125 9.023437 60.695312 30.015625 84.902343-33.28125 55.972657-30.097656 103.804688-30.097656 138.148438h-83.042969c-8.554687 0-15.492187 6.9375-15.492187 15.488281 0 8.554688 6.9375 15.492188 15.492187 15.492188h447.367187c8.550782 0 15.488282-6.9375 15.488282-15.492188 0-8.550781-6.9375-15.488281-15.488282-15.488281zm-333.265624-223.050781h106.152343c21.480469 0 38.953125-16.511719 38.953125-36.804688 0-20.300781-17.472656-36.8125-38.953125-36.8125h-11.957031c-8.550781 0-15.488281 6.941407-15.488281 15.492188 0 8.546875 6.9375 15.488281 15.488281 15.488281h11.957031c4.246094 0 7.972657 2.726562 7.972657 5.832031 0 3.109375-3.726563 5.824219-7.972657 5.824219h-99.417969c15.617188-38.542969 50.117188-63.25 201.667969-80.914062-4.863281 41.488281-20.964843 151.949218-50.410156 181.398437-31.863281 31.859375-81.828125 35.859375-118.164063 10.707031 8.039063-10.089844 11.757813-13.398437 39.953126-41.59375 6.050781-6.039062 6.050781-15.847656 0-21.898437-6.050782-6.050781-15.851563-6.050781-21.902344 0-27.929688 27.925781-31.867188 31.480469-40.304688 41.777343-12.597656-17.296874-18.449218-38.011718-17.574218-58.496093zm192.253906 142.304687c2.21875-2.445312 2.136718-2.304687 26.019531-26.1875 6.050781-6.050781 6.050781-15.851562 0-21.902344-6.050781-6.050781-15.859375-6.050781-21.902344 0-24.46875 24.457032-23.824219 23.769532-26.09375 26.21875-2.878906-4.8125-5.109375-9.964843-6.617187-15.355468 18.691406-13.148438 33.84375-29.089844 49.253906-78.355469 26.476562-8.550781 62.269531-14.910156 91.292969-18.441406-5.523438 45.425781-17.976563 107.390625-34.953125 124.367187-20.835938 20.839844-52.734375 24.058594-77 9.65625zm-169.660156-36.347656c33.324218 22.886719 75.796874 27.753906 113.238281 13.804688 3.449219 9.625 8.464843 18.648437 14.921875 26.753906-13.550782 22.972656-20.375 48.339844-20.375 76.535156h-130.460938c0-32.785156-2.882812-70.785156 22.675782-117.09375zm0 0" fill="#C35F5F"/></svg>