<?xml version="1.0" encoding="UTF-8" standalone="no"?>
<!-- Created with Inkscape (http://www.inkscape.org/) -->

<svg
   xmlns:dc="http://purl.org/dc/elements/1.1/"
   xmlns:cc="http://creativecommons.org/ns#"
   xmlns:rdf="http://www.w3.org/1999/02/22-rdf-syntax-ns#"
   xmlns:svg="http://www.w3.org/2000/svg"
   xmlns="http://www.w3.org/2000/svg"
   xmlns:sodipodi="http://sodipodi.sourceforge.net/DTD/sodipodi-0.dtd"
   xmlns:inkscape="http://www.inkscape.org/namespaces/inkscape"
   viewBox="4.7 51 20 24"
   version="1.1"
   id="svg22"
   inkscape:version="0.92.2 5c3e80d, 2017-08-06"
   sodipodi:docname="logoSmall2.svg">
  <defs
     id="defs16" />
  <sodipodi:namedview
     id="base"
     pagecolor="#ffffff"
     bordercolor="#666666"
     borderopacity="1.0"
     inkscape:pageopacity="0.0"
     inkscape:pageshadow="2"
     inkscape:zoom="2.6284866"
     inkscape:cx="-12.061208"
     inkscape:cy="909.98222"
     inkscape:document-units="mm"
     inkscape:current-layer="layer1"
     showgrid="false"
     inkscape:window-width="1280"
     inkscape:window-height="698"
     inkscape:window-x="0"
     inkscape:window-y="1"
     inkscape:window-maximized="1" />
  <metadata
     id="metadata19">
    <rdf:RDF>
      <cc:Work
         rdf:about="">
        <dc:format>image/svg+xml</dc:format>
        <dc:type
           rdf:resource="http://purl.org/dc/dcmitype/StillImage" />
        <dc:title />
      </cc:Work>
    </rdf:RDF>
  </metadata>
  <g
     inkscape:label="Layer 1"
     inkscape:groupmode="layer"
     id="layer1">
    <flowRoot
       xml:space="preserve"
       id="flowRoot181"
       style="fill:black;stroke:none;stroke-opacity:1;stroke-width:1px;stroke-linejoin:miter;stroke-linecap:butt;fill-opacity:1;font-family:Pacifico;font-style:normal;font-weight:normal;font-size:40px;line-height:125%;letter-spacing:0px;word-spacing:0px;-inkscape-font-specification:'Pacifico, Normal';font-stretch:normal;font-variant:normal;text-anchor:start;text-align:start;writing-mode:lr;font-variant-ligatures:normal;font-variant-caps:normal;font-variant-numeric:normal"><flowRegion
         id="flowRegion183"><rect
           id="rect185"
           width="127.78429"
           height="40.406101"
           x="-11.616755"
           y="169.94583" /></flowRegion><flowPara
         id="flowPara187" /></flowRoot>    <path
       style="font-style:normal;font-variant:normal;font-weight:normal;font-stretch:normal;font-size:24.03921509px;line-height:125%;font-family:Pacifico;-inkscape-font-specification:'Pacifico, Normal';font-variant-ligatures:normal;font-variant-caps:normal;font-variant-numeric:normal;text-align:start;letter-spacing:0px;word-spacing:0px;writing-mode:lr-tb;text-anchor:start;fill:#505050;fill-opacity:1;stroke:none;stroke-width:2.27142191px;stroke-linecap:butt;stroke-linejoin:miter;stroke-opacity:1;opacity:1"
       d="M 68.285156 198.64844 C 63.958924 198.64844 60.314735 199.42105 57.351562 200.96875 C 54.388391 202.51645 52.16518 204.59127 50.683594 207.19141 C 50.472861 207.56747 50.283026 207.95155 50.103516 208.33984 L 63.498047 208.33984 C 64.542565 208.00799 65.751579 207.8418 67.128906 207.8418 C 71.692193 207.8418 73.974609 209.9764 73.974609 214.24805 C 73.974609 216.84818 73.23354 219.35708 71.751953 221.77148 C 70.270367 224.18589 67.840908 227.12495 64.462891 230.5918 C 60.84782 234.36818 58.269366 237.77315 56.728516 240.80664 C 55.187666 243.84013 54.299554 247.30683 54.0625 251.20703 C 54.003237 252.69282 54.299274 253.77604 54.951172 254.45703 C 55.60307 255.07611 56.462555 255.38672 57.529297 255.38672 C 58.714566 255.38672 59.751673 255.01438 60.640625 254.27148 C 61.58884 253.46668 62.26875 252.26 62.683594 250.65039 C 63.157701 248.91697 63.751729 247.39968 64.462891 246.09961 C 65.233316 244.73764 66.448045 243.16056 68.107422 241.36523 C 69.766799 239.56991 72.196258 237.24815 75.396484 234.40039 C 79.189346 230.99546 82.033257 227.71394 83.929688 224.55664 C 85.826117 221.39934 86.775391 217.8709 86.775391 213.9707 C 86.775391 209.01807 85.146209 205.24076 81.886719 202.64062 C 78.686492 199.9786 74.152239 198.64844 68.285156 198.64844 z "
       transform="scale(0.26458333)"
       id="text4287"
       inkscape:export-xdpi="92.479591"
       inkscape:export-ydpi="92.479591" />
    <path
       inkscape:connector-curvature="0"
       id="path159"
       d="m 16.142395,73.636046 c -0.472057,-0.326942 -0.656879,-0.568878 -0.866543,-1.134317 -0.265561,-0.716183 -0.471565,-0.909112 -1.033631,-0.968032 -0.782822,-0.08207 -0.821073,-0.103953 -1.015465,-0.58115 -0.557221,-1.367882 -0.662802,-1.919655 -0.367324,-1.919655 0.201728,0 0.397704,0.293978 0.576452,0.864716 0.238394,0.761194 0.258026,0.79026 0.51433,0.76151 0.277382,-0.03112 1.030358,-0.408239 1.129773,-0.565842 0.05417,-0.08588 0.02896,-0.183243 -0.09111,-0.351857 -0.21699,-0.304735 -0.220063,-0.77266 -0.0069,-1.043711 0.228524,-0.290521 0.75855,-0.290521 0.987074,0 0.08753,0.111277 0.159146,0.294719 0.159146,0.407649 0,0.346134 0.148573,0.460061 0.670234,0.513951 0.585152,0.06045 0.744776,-0.03165 0.667174,-0.384969 -0.02837,-0.12914 -0.08174,-0.287766 -0.118603,-0.3525 -0.147936,-0.259748 -0.374157,-0.868664 -0.374157,-1.007107 0,-0.202927 0.241259,-0.18898 0.442162,0.02556 0.181231,0.193536 0.479273,0.844509 0.479273,1.046818 0,0.07252 0.03242,0.164676 0.07205,0.204797 0.03963,0.04012 0.09589,0.254266 0.125045,0.475877 0.05188,0.394472 0.04692,0.408498 -0.236444,0.668047 l -0.28944,0.265115 0.05095,0.52214 c 0.145808,1.494421 0.147999,1.858389 0.0133,2.211069 -0.165884,0.434366 -0.366703,0.576921 -0.808365,0.573837 -0.258282,-0.0018 -0.432838,-0.06143 -0.679039,-0.231947 z"
       style="fill:#0071cb;stroke-width:0.07678622;fill-opacity:1;opacity:1"
       inkscape:export-xdpi="92.479591"
       inkscape:export-ydpi="92.479591" />
    <path
       inkscape:connector-curvature="0"
       id="path495"
       d="M 6.7965596,61.796775 C 6.3895414,61.596853 6.1063397,61.235022 5.9775255,60.75034 c -0.055405,-0.208479 -0.063823,-0.919442 -0.013513,-1.141812 0.082342,-0.363957 0.10758,-0.45556 0.2125554,-0.771454 0.198,-0.595826 0.5929398,-1.322453 1.0338447,-1.902112 0.591266,-0.77734 1.4790533,-1.66018 2.2911748,-2.278409 1.7170286,-1.307093 3.4304696,-2.127931 5.1817646,-2.482369 0.105228,-0.0213 0.248725,-0.05102 0.318879,-0.06605 0.479941,-0.102833 1.346393,-0.170546 1.889767,-0.147686 1.578325,0.06639 2.881494,0.407901 3.897862,1.021455 0.733646,0.442882 1.240414,0.892859 1.584384,1.406827 0.245837,0.367338 0.303173,0.481869 0.422504,0.843976 0.10383,0.315071 0.126484,0.498692 0.05784,0.468874 -0.02192,-0.0095 -0.169005,-0.07011 -0.326849,-0.134661 -0.157845,-0.06454 -0.31569,-0.12985 -0.350766,-0.145131 -0.06455,-0.02812 -0.288938,-0.08999 -0.637754,-0.17584 -0.45024,-0.110823 -0.63267,-0.14545 -1.068241,-0.202773 -0.149074,-0.01962 -0.358796,-0.04934 -0.466048,-0.06604 -0.255092,-0.03973 -1.766996,-0.03924 -2.044522,6.69e-4 -0.118708,0.01707 -0.380853,0.05414 -0.582544,0.0824 -0.510442,0.07151 -0.726917,0.114328 -1.458865,0.288576 -0.263411,0.06271 -0.604045,0.166557 -1.108098,0.337823 -2.115119,0.718669 -4.013806,1.913718 -5.5585352,3.498582 -0.5993141,0.614887 -1.2755229,1.463148 -1.8514272,2.322499 -0.2988043,0.445868 -0.2919227,0.442577 -0.6043824,0.289101 z"
       style="fill:#0071cb;stroke-width:0.03188777;fill-opacity:1;opacity:1"
       inkscape:export-xdpi="92.479591"
       inkscape:export-ydpi="92.479591" />
  </g>
</svg>
